<?xml version="1.0" standalone="no"?>
<svg xmlns:xlink="http://www.w3.org/1999/xlink" id="wave" style="transform:rotate(180deg); transition: 0.3s" viewBox="0 0 1440 250" version="1.1" xmlns="http://www.w3.org/2000/svg">
<defs>
<linearGradient id="sw-gradient-0" x1="0" x2="0" y1="1" y2="0">
<stop stop-color="#13889f" offset="0%"/>
<stop stop-color="#11778b" offset="100%"/>
</linearGradient>
</defs>
<path style="transform:translate(0, 0px); opacity:1" fill="url(#sw-gradient-0)" d="M0,125L120,141.7C240,158,480,192,720,195.8C960,200,1200,175,1440,145.8C1680,117,1920,83,2160,70.8C2400,58,2640,67,2880,83.3C3120,100,3360,125,3600,120.8C3840,117,4080,83,4320,91.7C4560,100,4800,150,5040,166.7C5280,183,5520,167,5760,137.5C6000,108,6240,67,6480,70.8C6720,75,6960,125,7200,137.5C7440,150,7680,125,7920,108.3C8160,92,8400,83,8640,100C8880,117,9120,158,9360,166.7C9600,175,9840,150,10080,145.8C10320,142,10560,158,10800,154.2C11040,150,11280,125,11520,116.7C11760,108,12000,117,12240,133.3C12480,150,12720,175,12960,183.3C13200,192,13440,183,13680,175C13920,167,14160,158,14400,145.8C14640,133,14880,117,15120,104.2C15360,92,15600,83,15840,100C16080,117,16320,158,16560,150C16800,142,17040,83,17160,54.2L17280,25L17280,250L17160,250C17040,250,16800,250,16560,250C16320,250,16080,250,15840,250C15600,250,15360,250,15120,250C14880,250,14640,250,14400,250C14160,250,13920,250,13680,250C13440,250,13200,250,12960,250C12720,250,12480,250,12240,250C12000,250,11760,250,11520,250C11280,250,11040,250,10800,250C10560,250,10320,250,10080,250C9840,250,9600,250,9360,250C9120,250,8880,250,8640,250C8400,250,8160,250,7920,250C7680,250,7440,250,7200,250C6960,250,6720,250,6480,250C6240,250,6000,250,5760,250C5520,250,5280,250,5040,250C4800,250,4560,250,4320,250C4080,250,3840,250,3600,250C3360,250,3120,250,2880,250C2640,250,2400,250,2160,250C1920,250,1680,250,1440,250C1200,250,960,250,720,250C480,250,240,250,120,250L0,250Z"/>
</svg>