<?xml version="1.0" standalone="no"?><svg xmlns="http://www.w3.org/2000/svg" viewBox="0 0 1440 320"><path fill="#0099ff" fill-opacity="1" d="M0,32L34.3,37.3C68.6,43,137,53,206,48C274.3,43,343,21,411,26.7C480,32,549,64,617,74.7C685.7,85,754,75,823,80C891.4,85,960,107,1029,106.7C1097.1,107,1166,85,1234,85.3C1302.9,85,1371,107,1406,117.3L1440,128L1440,0L1405.7,0C1371.4,0,1303,0,1234,0C1165.7,0,1097,0,1029,0C960,0,891,0,823,0C754.3,0,686,0,617,0C548.6,0,480,0,411,0C342.9,0,274,0,206,0C137.1,0,69,0,34,0L0,0Z"></path></svg>