<?xml version="1.0" standalone="no"?>
<svg xmlns="http://www.w3.org/2000/svg" viewBox="0 0 1440 320">
    <path fill="#13889f" fill-opacity="1" d="M0,0L34.3,21.3C68.6,43,137,85,206,117.3C274.3,149,343,171,411,176C480,181,549,171,617,160C685.7,149,754,139,823,128C891.4,117,960,107,1029,112C1097.1,117,1166,139,1234,154.7C1302.9,171,1371,181,1406,186.7L1440,192L1440,0L1405.7,0C1371.4,0,1303,0,1234,0C1165.7,0,1097,0,1029,0C960,0,891,0,823,0C754.3,0,686,0,617,0C548.6,0,480,0,411,0C342.9,0,274,0,206,0C137.1,0,69,0,34,0L0,0Z">
    </path>
</svg>